<svg version="1.1" id="Layer_1" xmlns="http://www.w3.org/2000/svg" xmlns:xlink="http://www.w3.org/1999/xlink" x="0px" y="0px"
	 width="100%" viewBox="0 0 397 177" enable-background="new 0 0 397 177" xml:space="preserve">
<path fill="#F8C529" opacity="1.000000" stroke="none" 
	d="
M1.000000,125.000000 
	C1.000000,84.312439 1.000000,43.624878 1.301489,2.411200 
	C1.735318,1.590057 1.867659,1.295028 2.000000,1.000000 
	C133.354233,1.000000 264.708466,1.000000 396.455078,1.300015 
	C397.231659,1.733351 397.615845,1.866672 398.000000,1.999997 
	C398.000000,42.687561 398.000000,83.375122 397.549683,124.390388 
	C364.248657,124.718094 331.397980,124.718094 298.500488,124.718094 
	C298.500488,128.499969 298.500488,131.417419 298.500488,135.000000 
	C331.863525,135.000000 364.931763,135.000000 398.000000,135.000000 
	C398.000000,137.370560 398.000000,139.741104 397.532806,142.515549 
	C364.304443,142.919434 331.543274,142.919434 298.500458,142.919434 
	C298.500458,146.259705 298.500458,148.992401 298.500458,152.296295 
	C300.513641,152.296295 302.296661,152.296295 304.079681,152.296310 
	C326.235352,152.296310 348.391083,152.324432 370.546661,152.282806 
	C379.697906,152.265625 388.848907,152.098770 398.000000,152.000000 
	C398.000000,154.370560 398.000000,156.741104 397.540710,159.656433 
	C364.210175,160.201218 331.338959,160.201218 298.494904,160.201218 
	C298.494904,163.808563 298.494904,166.565323 298.494904,170.000000 
	C331.869385,170.000000 364.934692,170.000000 398.000000,170.000000 
	C398.000000,172.041672 398.000000,174.083328 397.534973,176.564117 
	C265.046661,177.002167 133.023331,177.001083 1.000000,177.000000 
	C1.000000,174.958328 1.000000,172.916672 1.466726,170.391449 
	C34.130486,169.907898 66.327522,169.907898 98.505096,169.907898 
	C98.505096,166.253754 98.505096,163.498001 98.505096,160.245651 
	C90.752312,160.245651 83.303169,160.264084 75.854141,160.242279 
	C50.902740,160.169266 25.951378,160.081879 1.000000,160.000000 
	C1.000000,157.629440 1.000000,155.258896 1.454881,152.565887 
	C34.122364,152.243439 66.334969,152.243439 98.344711,152.243439 
	C98.344711,148.650513 98.344711,145.931702 98.344711,143.000000 
	C65.603340,143.000000 33.301670,143.000000 1.000000,143.000000 
	C1.000000,140.629440 1.000000,138.258896 1.467874,135.414856 
	C34.131729,134.941360 66.327705,134.941360 98.487099,134.941360 
	C98.487099,131.081360 98.487099,128.150314 98.487099,124.647026 
	C96.229012,124.647026 94.276978,124.647018 92.324944,124.647018 
	C64.864502,124.647011 37.404049,124.636230 9.943635,124.662491 
	C6.962318,124.665337 3.981206,124.882332 1.000000,125.000000 
M366.500000,116.933968 
	C374.259552,116.933968 382.019104,116.933968 389.677704,116.933968 
	C389.677704,80.620834 389.677704,45.070488 389.677704,9.546192 
	C261.938965,9.546192 134.582062,9.546192 7.321297,9.546192 
	C7.321297,45.478672 7.321297,81.037308 7.321297,116.933945 
	C126.967911,116.933945 246.233963,116.933945 366.500000,116.933968 
M218.351456,133.775620 
	C213.288284,133.409103 208.225113,133.042587 202.954330,132.661026 
	C202.954330,141.989105 202.954330,150.481155 202.954330,159.274841 
	C207.178772,159.274841 211.107193,159.861099 214.748108,159.089905 
	C217.677109,158.469513 221.535629,156.816559 222.639801,154.503723 
	C223.777924,152.119766 222.083542,148.383560 221.628448,145.239014 
	C221.055847,145.306641 220.483261,145.374268 219.910675,145.441910 
	C222.670654,141.370087 223.783249,137.461853 218.351456,133.775620 
M183.712769,154.072144 
	C182.621567,152.069550 180.788315,150.138046 180.588226,148.050064 
	C180.121216,143.176834 180.439148,138.228394 180.439148,132.917068 
	C177.859467,133.049820 176.148010,133.137909 174.244934,133.235840 
	C174.244934,139.762680 173.872604,145.758987 174.352936,151.686203 
	C174.804947,157.263855 179.024246,160.035339 185.522858,159.964111 
	C191.755600,159.895798 195.860275,157.158020 196.282532,151.788422 
	C196.761032,145.703598 196.392960,139.552185 196.392960,133.251831 
	C194.278030,133.251831 192.550217,133.251831 190.244431,133.251831 
	C190.244431,138.537582 190.219162,143.498917 190.252579,148.459869 
	C190.278503,152.307602 188.710114,154.507874 183.712769,154.072144 
M244.869812,148.691849 
	C247.147461,145.022842 246.320801,143.146500 241.809311,143.298553 
	C239.726212,143.368774 237.638794,143.310516 234.710693,143.310516 
	C236.746017,135.017303 243.356384,140.700790 246.963287,137.287720 
	C246.923416,136.427689 246.852615,134.900101 246.762054,132.945938 
	C241.466492,132.945938 236.655212,132.803543 231.865585,133.062164 
	C230.868195,133.116013 229.147156,134.631409 229.122589,135.511307 
	C228.905716,143.280060 228.996735,151.057419 228.996735,158.911560 
	C235.366318,158.911560 241.085678,158.911560 246.678238,158.911560 
	C247.750366,155.081253 246.635605,153.419724 242.912735,153.751572 
	C241.259689,153.898911 239.522995,154.027664 237.936676,153.668442 
	C236.941971,153.443176 236.156342,152.294586 235.276886,151.560257 
	C236.193207,150.696884 236.995377,149.315872 238.050751,149.083160 
	C239.962372,148.661682 242.024918,148.924744 244.869812,148.691849 
M161.437485,132.903076 
	C158.609177,132.903610 155.771515,133.050476 152.954742,132.870468 
	C148.708084,132.599060 148.206711,134.662430 149.349167,138.171753 
	C151.513138,138.425049 153.606216,138.670029 156.250336,138.979523 
	C156.250336,145.725616 156.250336,152.286362 156.250336,158.919754 
	C158.709106,158.919754 160.577698,158.919754 162.976135,158.919754 
	C162.976135,151.943466 162.976135,145.380569 162.976135,138.901031 
	C165.581833,138.577026 167.652817,138.319504 169.764847,138.056885 
	C170.927368,130.426865 165.354218,133.673019 161.437485,132.903076 
z"/>
<path fill="#161214" opacity="1.000000" stroke="none" 
	d="
M398.000000,169.545898 
	C364.934692,170.000000 331.869385,170.000000 298.494904,170.000000 
	C298.494904,166.565323 298.494904,163.808563 298.494904,160.201218 
	C331.338959,160.201218 364.210175,160.201218 397.540710,160.100616 
	C398.000000,163.030594 398.000000,166.061188 398.000000,169.545898 
z"/>
<path fill="#0F0C13" opacity="1.000000" stroke="none" 
	d="
M398.000000,134.545898 
	C364.931763,135.000000 331.863525,135.000000 298.500488,135.000000 
	C298.500488,131.417419 298.500488,128.499969 298.500488,124.718094 
	C331.397980,124.718094 364.248657,124.718094 397.549683,124.859047 
	C398.000000,128.030594 398.000000,131.061188 398.000000,134.545898 
z"/>
<path fill="#161214" opacity="1.000000" stroke="none" 
	d="
M1.000000,160.454102 
	C25.951378,160.081879 50.902740,160.169266 75.854141,160.242279 
	C83.303169,160.264084 90.752312,160.245651 98.505096,160.245651 
	C98.505096,163.498001 98.505096,166.253754 98.505096,169.907898 
	C66.327522,169.907898 34.130486,169.907898 1.466726,169.953949 
	C1.000000,166.969406 1.000000,163.938812 1.000000,160.454102 
z"/>
<path fill="#0F0C13" opacity="1.000000" stroke="none" 
	d="
M1.000000,125.454109 
	C3.981206,124.882332 6.962318,124.665337 9.943635,124.662491 
	C37.404049,124.636230 64.864502,124.647011 92.324944,124.647018 
	C94.276978,124.647018 96.229012,124.647026 98.487099,124.647026 
	C98.487099,128.150314 98.487099,131.081360 98.487099,134.941360 
	C66.327705,134.941360 34.131729,134.941360 1.467874,134.970673 
	C1.000000,131.969406 1.000000,128.938812 1.000000,125.454109 
z"/>
<path fill="#0A0913" opacity="1.000000" stroke="none" 
	d="
M398.000000,151.550018 
	C388.848907,152.098770 379.697906,152.265625 370.546661,152.282806 
	C348.391083,152.324432 326.235352,152.296310 304.079681,152.296310 
	C302.296661,152.296295 300.513641,152.296295 298.500458,152.296295 
	C298.500458,148.992401 298.500458,146.259705 298.500458,142.919434 
	C331.543274,142.919434 364.304443,142.919434 397.532806,142.959717 
	C398.000000,145.700012 398.000000,148.400024 398.000000,151.550018 
z"/>
<path fill="#0A0913" opacity="1.000000" stroke="none" 
	d="
M1.000000,143.449982 
	C33.301670,143.000000 65.603340,143.000000 98.344711,143.000000 
	C98.344711,145.931702 98.344711,148.650513 98.344711,152.243439 
	C66.334969,152.243439 34.122364,152.243439 1.454881,152.121719 
	C1.000000,149.299988 1.000000,146.599976 1.000000,143.449982 
z"/>
<path fill="#D5C490" opacity="1.000000" stroke="none" 
	d="
M1.000000,177.500000 
	C133.023331,177.001083 265.046661,177.002167 397.534973,177.001633 
	C396.668762,177.333359 395.337769,177.957092 394.006256,177.958221 
	C336.911346,178.006760 279.816376,178.000000 222.721436,178.000000 
	C148.814285,178.000000 74.907143,178.000000 1.000000,177.500000 
z"/>
<path fill="#6A551C" opacity="1.000000" stroke="none" 
	d="
M398.000000,1.499997 
	C397.615845,1.866672 397.231659,1.733351 396.923767,1.300015 
	C397.333344,1.000000 397.666656,1.000000 398.000000,1.499997 
z"/>
<path fill="#6A551C" opacity="1.000000" stroke="none" 
	d="
M1.500000,1.000000 
	C1.867659,1.295028 1.735318,1.590057 1.301489,1.942542 
	C1.000000,1.666667 1.000000,1.333333 1.500000,1.000000 
z"/>
<path fill="#080712" opacity="1.000000" stroke="none" 
	d="
M366.000000,116.933960 
	C246.233963,116.933945 126.967911,116.933945 7.321297,116.933945 
	C7.321297,81.037308 7.321297,45.478672 7.321297,9.546192 
	C134.582062,9.546192 261.938965,9.546192 389.677704,9.546192 
	C389.677704,45.070488 389.677704,80.620834 389.677704,116.933968 
	C382.019104,116.933968 374.259552,116.933968 366.000000,116.933960 
M290.640961,90.668373 
	C308.179993,90.420067 318.466888,80.065437 318.600586,62.524647 
	C318.727478,45.877518 308.643066,34.808067 292.827698,34.234268 
	C276.810242,33.653130 266.028809,43.440891 264.823669,59.657295 
	C263.510254,77.330681 272.839600,88.916534 290.640961,90.668373 
M85.214973,79.429825 
	C85.214973,82.672546 85.214973,85.915268 85.214973,89.117622 
	C89.935318,89.117622 93.815147,89.117622 98.235611,89.117622 
	C98.235611,82.137428 98.235611,75.565109 98.235611,69.088203 
	C108.009392,67.988106 108.009987,67.987885 111.226830,76.496048 
	C112.520309,79.917145 113.670479,83.403053 115.179466,86.726151 
	C115.696236,87.864204 117.042992,89.284431 118.123138,89.386711 
	C121.671272,89.722679 125.271080,89.513039 129.624619,89.513039 
	C126.896660,82.768692 124.652451,76.910194 122.151115,71.163605 
	C120.847847,68.169456 120.684448,66.199348 123.427338,63.438835 
	C131.856308,54.955730 128.625580,38.371265 117.718994,36.658321 
	C107.271339,35.017445 96.363907,36.304070 85.215012,36.304070 
	C85.215012,50.231411 85.215012,64.340958 85.214973,79.429825 
M350.916931,35.491165 
	C341.820496,35.491165 332.724030,35.491165 323.471954,35.491165 
	C323.471954,53.666763 323.471954,71.350014 323.471954,89.233978 
	C327.698395,89.233978 331.611786,89.233978 336.040161,89.233978 
	C336.040161,82.374794 336.040161,75.801773 336.040161,69.337715 
	C345.711853,67.546272 345.878876,67.634468 348.929932,75.728798 
	C350.277832,79.304710 351.512634,82.930382 353.043701,86.426186 
	C353.564575,87.615402 354.761688,89.250801 355.777283,89.347839 
	C359.464935,89.700180 363.206665,89.486801 367.523407,89.486801 
	C364.765839,82.603630 362.488403,76.557831 359.910004,70.643234 
	C358.714874,67.901672 358.661560,66.189751 361.116180,63.792233 
	C366.530182,58.504173 367.054474,51.698215 364.786926,44.786892 
	C362.782532,38.677727 357.889099,36.154045 350.916931,35.491165 
M168.100769,61.657440 
	C168.022583,60.188160 167.944412,58.718880 167.836929,56.699085 
	C160.637024,56.699085 153.703293,56.699085 146.597931,56.699085 
	C146.597931,53.108486 146.597931,50.090755 146.597931,46.632748 
	C154.637299,46.632748 162.241257,46.632748 170.032486,46.632748 
	C170.032486,42.662750 170.032486,39.145798 170.032486,35.690346 
	C157.682373,35.690346 145.780518,35.690346 133.819077,35.690346 
	C133.819077,53.783119 133.819077,71.488281 133.819077,89.547684 
	C140.196762,89.547684 146.171509,89.547684 152.146255,89.547684 
	C158.087555,89.547684 164.028870,89.547684 170.160492,89.547684 
	C170.160492,85.494438 170.160492,82.091789 170.160492,78.095947 
	C163.241348,78.095947 156.617401,77.890472 150.013916,78.169281 
	C145.721878,78.350510 146.196930,75.740791 146.122375,73.010429 
	C146.042618,70.089188 146.063843,67.727509 150.167480,68.022270 
	C154.310181,68.319839 158.519302,67.782928 162.647491,68.167763 
	C167.147659,68.587280 168.832092,66.924095 168.100769,61.657440 
M61.754822,34.612770 
	C44.126041,32.913029 33.014557,40.795574 30.295689,56.930038 
	C26.497965,79.466736 44.082039,95.687622 65.607750,89.504570 
	C74.337700,86.996986 79.923035,80.249931 80.391861,71.100700 
	C76.597267,71.100700 72.809265,70.984680 69.038551,71.188469 
	C68.177925,71.234985 66.968788,72.214424 66.615295,73.056374 
	C64.437767,78.242775 60.242878,79.541084 55.219788,79.148994 
	C50.030144,78.743904 46.262329,75.880089 45.001949,70.977684 
	C43.951767,66.892868 43.563293,62.450108 43.884884,58.242558 
	C44.425293,51.172146 48.469440,46.797768 54.193359,45.854240 
	C60.494289,44.815598 63.877079,46.734295 67.561478,53.382011 
	C71.869736,53.382011 76.129654,53.382011 80.401482,53.382011 
	C79.789925,43.402443 73.876259,37.302872 61.754822,34.612770 
M175.828003,89.530800 
	C177.825409,89.530167 179.906998,89.875763 181.793091,89.417236 
	C183.250854,89.062851 185.496918,87.819168 185.617310,86.767601 
	C186.386444,80.049286 190.485199,78.973045 196.103714,79.770668 
	C197.572189,79.979149 199.126328,79.996986 200.587540,79.764969 
	C204.668106,79.117027 206.652832,80.754517 207.505875,84.803467 
	C207.869858,86.531090 209.502274,89.027229 210.913223,89.293510 
	C214.374481,89.946724 218.041992,89.507019 222.302429,89.507019 
	C217.006821,74.003395 212.018280,59.398823 207.029785,44.794235 
	C203.628021,34.835106 203.620163,34.723328 193.327377,35.447868 
	C191.808472,35.554787 189.553009,36.995754 189.077606,38.331676 
	C183.386154,54.325253 178.008896,70.430290 172.436600,86.466949 
	C171.458801,89.281029 172.735123,89.651848 175.828003,89.530800 
M245.120041,89.547478 
	C248.489685,90.012474 248.855637,88.058708 248.825928,85.334785 
	C248.722504,75.853027 248.786499,66.369438 248.786804,56.886547 
	C248.786896,53.635345 248.786804,50.384144 248.786804,46.512093 
	C254.296906,46.512093 259.014526,46.512093 263.829803,46.512093 
	C263.829803,42.588379 263.829803,39.307526 263.829803,35.723789 
	C249.436005,35.723789 235.272964,35.723789 221.077881,35.723789 
	C221.077881,39.552769 221.077881,42.954243 221.077881,46.954376 
	C226.166428,46.954376 230.896591,46.954376 236.211685,46.954376 
	C236.211685,61.409882 236.211685,75.268333 236.211685,89.549133 
	C239.287003,89.549133 241.755997,89.549133 245.120041,89.547478 
z"/>
<path fill="#120F13" opacity="1.000000" stroke="none" 
	d="
M218.728668,133.952072 
	C223.783249,137.461853 222.670654,141.370087 219.910675,145.441910 
	C220.483261,145.374268 221.055847,145.306641 221.628448,145.239014 
	C222.083542,148.383560 223.777924,152.119766 222.639801,154.503723 
	C221.535629,156.816559 217.677109,158.469513 214.748108,159.089905 
	C211.107193,159.861099 207.178772,159.274841 202.954330,159.274841 
	C202.954330,150.481155 202.954330,141.989105 202.954330,132.661026 
	C208.225113,133.042587 213.288284,133.409103 218.728668,133.952072 
M209.476303,148.609543 
	C208.434937,150.811951 207.333450,153.468704 210.996399,153.720642 
	C213.051605,153.862030 216.913788,152.446930 217.045898,151.374039 
	C217.512711,147.582733 214.006592,148.548279 211.694336,148.305222 
	C211.204758,148.253754 210.699646,148.350037 209.476303,148.609543 
M209.439621,143.374893 
	C210.239807,143.492203 211.133987,143.894180 211.820587,143.667496 
	C213.243744,143.197556 214.637054,142.504105 215.842072,141.627029 
	C216.063812,141.465637 215.521393,139.405518 215.016891,139.251221 
	C213.374069,138.748856 211.451431,138.269623 209.914383,138.723236 
	C209.237122,138.923080 209.229385,141.391708 209.439621,143.374893 
z"/>
<path fill="#1D1714" opacity="1.000000" stroke="none" 
	d="
M184.142593,154.137573 
	C188.710114,154.507874 190.278503,152.307602 190.252579,148.459869 
	C190.219162,143.498917 190.244431,138.537582 190.244431,133.251831 
	C192.550217,133.251831 194.278030,133.251831 196.392960,133.251831 
	C196.392960,139.552185 196.761032,145.703598 196.282532,151.788422 
	C195.860275,157.158020 191.755600,159.895798 185.522858,159.964111 
	C179.024246,160.035339 174.804947,157.263855 174.352936,151.686203 
	C173.872604,145.758987 174.244934,139.762680 174.244934,133.235840 
	C176.148010,133.137909 177.859467,133.049820 180.439148,132.917068 
	C180.439148,138.228394 180.121216,143.176834 180.588226,148.050064 
	C180.788315,150.138046 182.621567,152.069550 184.142593,154.137573 
z"/>
<path fill="#161314" opacity="1.000000" stroke="none" 
	d="
M244.447144,148.796936 
	C242.024918,148.924744 239.962372,148.661682 238.050751,149.083160 
	C236.995377,149.315872 236.193207,150.696884 235.276886,151.560272 
	C236.156342,152.294586 236.941971,153.443176 237.936676,153.668442 
	C239.522995,154.027664 241.259689,153.898911 242.912735,153.751572 
	C246.635605,153.419724 247.750366,155.081253 246.678238,158.911560 
	C241.085678,158.911560 235.366318,158.911560 228.996735,158.911560 
	C228.996735,151.057419 228.905716,143.280060 229.122589,135.511307 
	C229.147156,134.631409 230.868195,133.116013 231.865585,133.062164 
	C236.655212,132.803543 241.466492,132.945938 246.762054,132.945938 
	C246.852615,134.900101 246.923416,136.427689 246.963287,137.287720 
	C243.356384,140.700790 236.746017,135.017303 234.710693,143.310516 
	C237.638794,143.310516 239.726212,143.368774 241.809311,143.298553 
	C246.320801,143.146500 247.147461,145.022842 244.447144,148.796936 
z"/>
<path fill="#1E1814" opacity="1.000000" stroke="none" 
	d="
M161.920471,132.903076 
	C165.354218,133.673019 170.927368,130.426865 169.764847,138.056885 
	C167.652817,138.319504 165.581833,138.577026 162.976135,138.901031 
	C162.976135,145.380569 162.976135,151.943466 162.976135,158.919754 
	C160.577698,158.919754 158.709106,158.919754 156.250336,158.919754 
	C156.250336,152.286362 156.250336,145.725616 156.250336,138.979523 
	C153.606216,138.670029 151.513138,138.425049 149.349167,138.171753 
	C148.206711,134.662430 148.708084,132.599060 152.954742,132.870468 
	C155.771515,133.050476 158.609177,132.903610 161.920471,132.903076 
z"/>
<path fill="#F6C329" opacity="1.000000" stroke="none" 
	d="
M290.206207,90.653778 
	C272.839600,88.916534 263.510254,77.330681 264.823669,59.657295 
	C266.028809,43.440891 276.810242,33.653130 292.827698,34.234268 
	C308.643066,34.808067 318.727478,45.877518 318.600586,62.524647 
	C318.466888,80.065437 308.179993,90.420067 290.206207,90.653778 
M291.525238,79.270042 
	C299.208649,78.493423 302.872864,75.296021 304.600098,67.860924 
	C306.531830,59.545620 304.050476,50.745949 298.582001,47.582897 
	C296.780182,46.540695 294.546234,45.898106 292.462433,45.752827 
	C284.650391,45.208183 279.183350,50.536293 278.236572,59.295471 
	C277.021271,70.538368 281.371429,77.508682 291.525238,79.270042 
z"/>
<path fill="#F3C029" opacity="1.000000" stroke="none" 
	d="
M85.214996,78.940163 
	C85.215012,64.340958 85.215012,50.231411 85.215012,36.304070 
	C96.363907,36.304070 107.271339,35.017445 117.718994,36.658321 
	C128.625580,38.371265 131.856308,54.955730 123.427338,63.438835 
	C120.684448,66.199348 120.847847,68.169456 122.151115,71.163605 
	C124.652451,76.910194 126.896660,82.768692 129.624619,89.513039 
	C125.271080,89.513039 121.671272,89.722679 118.123138,89.386711 
	C117.042992,89.284431 115.696236,87.864204 115.179466,86.726151 
	C113.670479,83.403053 112.520309,79.917145 111.226830,76.496048 
	C108.009987,67.987885 108.009392,67.988106 98.235611,69.088203 
	C98.235611,75.565109 98.235611,82.137428 98.235611,89.117622 
	C93.815147,89.117622 89.935318,89.117622 85.214973,89.117622 
	C85.214973,85.915268 85.214973,82.672546 85.214996,78.940163 
M112.194420,56.978207 
	C113.120796,54.757671 114.938408,52.418182 114.663445,50.357986 
	C114.476913,48.960434 111.462288,47.223011 109.518578,46.931866 
	C105.865578,46.384693 102.072296,46.774162 98.294464,46.774162 
	C98.294464,50.705883 98.294464,53.919670 98.294464,57.259422 
	C102.881996,57.259422 107.138992,57.259422 112.194420,56.978207 
z"/>
<path fill="#F4C229" opacity="1.000000" stroke="none" 
	d="
M351.352875,35.530479 
	C357.889099,36.154045 362.782532,38.677727 364.786926,44.786892 
	C367.054474,51.698215 366.530182,58.504173 361.116180,63.792233 
	C358.661560,66.189751 358.714874,67.901672 359.910004,70.643234 
	C362.488403,76.557831 364.765839,82.603630 367.523407,89.486801 
	C363.206665,89.486801 359.464935,89.700180 355.777283,89.347839 
	C354.761688,89.250801 353.564575,87.615402 353.043701,86.426186 
	C351.512634,82.930382 350.277832,79.304710 348.929932,75.728798 
	C345.878876,67.634468 345.711853,67.546272 336.040161,69.337715 
	C336.040161,75.801773 336.040161,82.374794 336.040161,89.233978 
	C331.611786,89.233978 327.698395,89.233978 323.471954,89.233978 
	C323.471954,71.350014 323.471954,53.666763 323.471954,35.491165 
	C332.724030,35.491165 341.820496,35.491165 351.352875,35.530479 
M335.979553,53.317738 
	C336.798187,54.759529 337.471252,57.311588 338.461914,57.441475 
	C341.861969,57.887260 345.523468,58.048332 348.782440,57.180534 
	C350.561493,56.706806 352.836761,53.958637 352.862244,52.206730 
	C352.887451,50.471615 350.585632,47.484936 348.918854,47.184147 
	C344.837341,46.447605 340.533417,46.943604 335.979431,46.943604 
	C335.979431,49.132133 335.979431,50.761463 335.979553,53.317738 
z"/>
<path fill="#F0BE29" opacity="1.000000" stroke="none" 
	d="
M168.100830,62.114334 
	C168.832092,66.924095 167.147659,68.587280 162.647491,68.167763 
	C158.519302,67.782928 154.310181,68.319839 150.167480,68.022270 
	C146.063843,67.727509 146.042618,70.089188 146.122375,73.010429 
	C146.196930,75.740791 145.721878,78.350510 150.013916,78.169281 
	C156.617401,77.890472 163.241348,78.095947 170.160492,78.095947 
	C170.160492,82.091789 170.160492,85.494438 170.160492,89.547684 
	C164.028870,89.547684 158.087555,89.547684 152.146255,89.547684 
	C146.171509,89.547684 140.196762,89.547684 133.819077,89.547684 
	C133.819077,71.488281 133.819077,53.783119 133.819077,35.690346 
	C145.780518,35.690346 157.682373,35.690346 170.032486,35.690346 
	C170.032486,39.145798 170.032486,42.662750 170.032486,46.632748 
	C162.241257,46.632748 154.637299,46.632748 146.597931,46.632748 
	C146.597931,50.090755 146.597931,53.108486 146.597931,56.699085 
	C153.703293,56.699085 160.637024,56.699085 167.836929,56.699085 
	C167.944412,58.718880 168.022583,60.188160 168.100830,62.114334 
z"/>
<path fill="#F4C129" opacity="1.000000" stroke="none" 
	d="
M62.175156,34.668465 
	C73.876259,37.302872 79.789925,43.402443 80.401482,53.382011 
	C76.129654,53.382011 71.869736,53.382011 67.561478,53.382011 
	C63.877079,46.734295 60.494289,44.815598 54.193359,45.854240 
	C48.469440,46.797768 44.425293,51.172146 43.884884,58.242558 
	C43.563293,62.450108 43.951767,66.892868 45.001949,70.977684 
	C46.262329,75.880089 50.030144,78.743904 55.219788,79.148994 
	C60.242878,79.541084 64.437767,78.242775 66.615295,73.056374 
	C66.968788,72.214424 68.177925,71.234985 69.038551,71.188469 
	C72.809265,70.984680 76.597267,71.100700 80.391861,71.100700 
	C79.923035,80.249931 74.337700,86.996986 65.607750,89.504570 
	C44.082039,95.687622 26.497965,79.466736 30.295689,56.930038 
	C33.014557,40.795574 44.126041,32.913029 62.175156,34.668465 
z"/>
<path fill="#F4C129" opacity="1.000000" stroke="none" 
	d="
M175.394623,89.528923 
	C172.735123,89.651848 171.458801,89.281029 172.436600,86.466949 
	C178.008896,70.430290 183.386154,54.325253 189.077606,38.331676 
	C189.553009,36.995754 191.808472,35.554787 193.327377,35.447868 
	C203.620163,34.723328 203.628021,34.835106 207.029785,44.794235 
	C212.018280,59.398823 217.006821,74.003395 222.302429,89.507019 
	C218.041992,89.507019 214.374481,89.946724 210.913223,89.293510 
	C209.502274,89.027229 207.869858,86.531090 207.505875,84.803467 
	C206.652832,80.754517 204.668106,79.117027 200.587540,79.764969 
	C199.126328,79.996986 197.572189,79.979149 196.103714,79.770668 
	C190.485199,78.973045 186.386444,80.049286 185.617310,86.767601 
	C185.496918,87.819168 183.250854,89.062851 181.793091,89.417236 
	C179.906998,89.875763 177.825409,89.530167 175.394623,89.528923 
M194.967636,55.696083 
	C193.780045,59.790016 192.592453,63.883953 191.293488,68.361832 
	C195.325775,68.361832 198.620743,68.361832 202.548111,68.361832 
	C200.743683,62.485420 199.133072,57.240208 197.522461,51.994995 
	C197.093918,52.086510 196.665390,52.178024 196.236862,52.269539 
	C195.884384,53.170280 195.531906,54.071018 194.967636,55.696083 
z"/>
<path fill="#F0BE28" opacity="1.000000" stroke="none" 
	d="
M244.672516,89.548309 
	C241.755997,89.549133 239.287003,89.549133 236.211685,89.549133 
	C236.211685,75.268333 236.211685,61.409882 236.211685,46.954376 
	C230.896591,46.954376 226.166428,46.954376 221.077881,46.954376 
	C221.077881,42.954243 221.077881,39.552769 221.077881,35.723789 
	C235.272964,35.723789 249.436005,35.723789 263.829803,35.723789 
	C263.829803,39.307526 263.829803,42.588379 263.829803,46.512093 
	C259.014526,46.512093 254.296906,46.512093 248.786804,46.512093 
	C248.786804,50.384144 248.786896,53.635345 248.786804,56.886547 
	C248.786499,66.369438 248.722504,75.853027 248.825928,85.334785 
	C248.855637,88.058708 248.489685,90.012474 244.672516,89.548309 
z"/>
<path fill="#D8AB26" opacity="1.000000" stroke="none" 
	d="
M209.838989,148.493896 
	C210.699646,148.350037 211.204758,148.253754 211.694336,148.305222 
	C214.006592,148.548279 217.512711,147.582733 217.045898,151.374039 
	C216.913788,152.446930 213.051605,153.862030 210.996399,153.720642 
	C207.333450,153.468704 208.434937,150.811951 209.838989,148.493896 
z"/>
<path fill="#CEA325" opacity="1.000000" stroke="none" 
	d="
M209.178650,143.102600 
	C209.229385,141.391708 209.237122,138.923080 209.914383,138.723236 
	C211.451431,138.269623 213.374069,138.748856 215.016891,139.251221 
	C215.521393,139.405518 216.063812,141.465637 215.842072,141.627029 
	C214.637054,142.504105 213.243744,143.197556 211.820587,143.667496 
	C211.133987,143.894180 210.239807,143.492203 209.178650,143.102600 
z"/>
<path fill="#0B0913" opacity="1.000000" stroke="none" 
	d="
M291.101990,79.250870 
	C281.371429,77.508682 277.021271,70.538368 278.236572,59.295471 
	C279.183350,50.536293 284.650391,45.208183 292.462433,45.752827 
	C294.546234,45.898106 296.780182,46.540695 298.582001,47.582897 
	C304.050476,50.745949 306.531830,59.545620 304.600098,67.860924 
	C302.872864,75.296021 299.208649,78.493423 291.101990,79.250870 
z"/>
<path fill="#130F13" opacity="1.000000" stroke="none" 
	d="
M111.795204,57.118813 
	C107.138992,57.259422 102.881996,57.259422 98.294464,57.259422 
	C98.294464,53.919670 98.294464,50.705883 98.294464,46.774162 
	C102.072296,46.774162 105.865578,46.384693 109.518578,46.931866 
	C111.462288,47.223011 114.476913,48.960434 114.663445,50.357986 
	C114.938408,52.418182 113.120796,54.757671 111.795204,57.118813 
z"/>
<path fill="#120F13" opacity="1.000000" stroke="none" 
	d="
M335.979492,52.854263 
	C335.979431,50.761463 335.979431,49.132133 335.979431,46.943604 
	C340.533417,46.943604 344.837341,46.447605 348.918854,47.184147 
	C350.585632,47.484936 352.887451,50.471615 352.862244,52.206730 
	C352.836761,53.958637 350.561493,56.706806 348.782440,57.180534 
	C345.523468,58.048332 341.861969,57.887260 338.461914,57.441475 
	C337.471252,57.311588 336.798187,54.759529 335.979492,52.854263 
z"/>
<path fill="#1F1914" opacity="1.000000" stroke="none" 
	d="
M195.073517,55.333923 
	C195.531906,54.071018 195.884384,53.170280 196.236862,52.269539 
	C196.665390,52.178024 197.093918,52.086510 197.522461,51.994995 
	C199.133072,57.240208 200.743683,62.485420 202.548111,68.361832 
	C198.620743,68.361832 195.325775,68.361832 191.293488,68.361832 
	C192.592453,63.883953 193.780045,59.790016 195.073517,55.333923 
z"/>
</svg>