<?xml version="1.0" encoding="iso-8859-1"?>
<!-- Generator: Adobe Illustrator 22.0.1, SVG Export Plug-In . SVG Version: 6.00 Build 0)  -->
<svg version="1.1" xmlns="http://www.w3.org/2000/svg" xmlns:xlink="http://www.w3.org/1999/xlink" x="0px" y="0px"
	 viewBox="0 0 128 128" style="enable-background:new 0 0 128 128;" xml:space="preserve">
<g id="_x31_4">
	<path style="fill:#945281;" d="M109.103,118.207L103.951,128L6.017,76.479l5.152-9.793c4.362-8.292,14.087-11.803,22.651-8.673
		l13.413-25.496c5.1-9.695,13.638-16.416,23.335-19.4c6.825-2.12,14.19-2.413,21.363-0.599c3.038,0.723,5.984,1.856,8.857,3.367
		c2.644,1.391,5.101,3.059,7.273,4.952c13.815,11.769,18.151,31.889,9.358,48.603l-13.447,25.561
		C110.989,100.36,113.362,110.111,109.103,118.207z"/>
	<path style="fill:#3F3F3F;" d="M112.045,13.263l-2.267,4.309c-2.172-1.893-4.629-3.561-7.273-4.952
		c-2.873-1.511-5.819-2.645-8.857-3.367l2.336-4.44c2.318-4.407,7.831-6.092,12.238-3.773c2.22,1.168,3.747,3.097,4.444,5.339
		C113.379,8.588,113.213,11.043,112.045,13.263z M40.073,101.89c-3.794,7.212-1.023,16.133,6.188,19.927l0,0
		c7.212,3.794,16.133,1.023,19.927-6.188"/>
</g>
<g id="Layer_1">
</g>
</svg>
