<svg xmlns="http://www.w3.org/2000/svg" width="128" height="128" viewBox="0 0 128 128">
  <title>MICROPHONE</title>
  <g>
    <g>
      <path d="M77.927,38.13V60.97a13.3,13.3,0,0,1-.09,1.55,13.926,13.926,0,0,1-27.68,0,13.3,13.3,0,0,1-.09-1.55V38.13a14.424,14.424,0,0,1,.11-1.75,13.93,13.93,0,0,1,27.64,0A14.424,14.424,0,0,1,77.927,38.13Z" fill="#ffd92d"/>
      <rect x="60.622" y="82.575" width="6.75" height="12.425" fill="#e70b69"/>
      <path d="M83.435,103.8H44.56a12.992,12.992,0,0,1,12.3-8.8H71.137a12.993,12.993,0,0,1,12.3,8.8Z" fill="#455e9f"/>
      <path d="M57.617,38.13a1.743,1.743,0,0,1-1.74,1.75h-5.81V38.13a14.424,14.424,0,0,1,.11-1.75h5.7A1.75,1.75,0,0,1,57.617,38.13Z" fill="#ff9001"/>
      <path d="M57.617,49.45a1.743,1.743,0,0,1-1.74,1.75h-5.81V47.7h5.81A1.743,1.743,0,0,1,57.617,49.45Z" fill="#ff9001"/>
      <path d="M57.617,60.77a1.75,1.75,0,0,1-1.74,1.75h-5.72a13.3,13.3,0,0,1-.09-1.55V59.02h5.81A1.743,1.743,0,0,1,57.617,60.77Z" fill="#ff9001"/>
      <path d="M77.927,38.13v1.75h-5.81a1.75,1.75,0,0,1,0-3.5h5.7A14.424,14.424,0,0,1,77.927,38.13Z" fill="#ff9001"/>
      <path d="M77.927,47.7v3.5h-5.81a1.75,1.75,0,0,1,0-3.5Z" fill="#ff9001"/>
      <path d="M77.927,59.02v1.95a13.3,13.3,0,0,1-.09,1.55h-5.72a1.75,1.75,0,0,1,0-3.5Z" fill="#ff9001"/>
    </g>
    <g>
      <path d="M78.188,74.944c-.223.225-.454.445-.688.659a1.749,1.749,0,1,0,2.355,2.587q.417-.378.814-.776a1.75,1.75,0,0,0-2.481-2.47Z" fill="#001c5b"/>
      <path d="M82.646,72.22A1.747,1.747,0,0,0,85,71.456a23.332,23.332,0,0,0,2.559-10.689,1.75,1.75,0,1,0-3.5,0,19.847,19.847,0,0,1-2.178,9.1A1.749,1.749,0,0,0,82.646,72.22Z" fill="#001c5b"/>
      <path d="M59.682,26.632a1.739,1.739,0,0,0,.542-.087c.284-.092.573-.174.864-.246a1.75,1.75,0,0,0-.834-3.4q-.565.139-1.114.317a1.751,1.751,0,0,0,.542,3.415Z" fill="#001c5b"/>
      <path d="M64,76.651A15.7,15.7,0,0,0,79.683,60.968V38.132A15.757,15.757,0,0,0,67.3,22.8a1.75,1.75,0,0,0-.735,3.422,12.241,12.241,0,0,1,9.479,10.163h-3.92a1.75,1.75,0,0,0,0,3.5h4.058V47.7H72.125a1.75,1.75,0,0,0,0,3.5h4.058v7.817H72.125a1.75,1.75,0,0,0,0,3.5h3.948a12.17,12.17,0,0,1-24.146,0h3.948a1.75,1.75,0,0,0,0-3.5H51.817V51.2h4.058a1.75,1.75,0,0,0,0-3.5H51.817V39.882h4.058a1.75,1.75,0,0,0,0-3.5H51.961A12.22,12.22,0,0,1,55.7,29.21a1.75,1.75,0,1,0-2.385-2.562,15.74,15.74,0,0,0-5,11.484V60.968A15.7,15.7,0,0,0,64,76.651Z" fill="#001c5b"/>
      <path d="M71.14,93.25H69.125V83.763a23.356,23.356,0,0,0,5.457-1.943,1.75,1.75,0,0,0-1.574-3.126A19.851,19.851,0,0,1,64,80.825,20.081,20.081,0,0,1,43.941,60.767a1.75,1.75,0,1,0-3.5,0A23.585,23.585,0,0,0,64,84.325c.546,0,1.087-.024,1.625-.06V93.25h-3.25V88.788a1.75,1.75,0,0,0-3.5,0V93.25H56.86a14.74,14.74,0,0,0-13.954,9.986,1.751,1.751,0,0,0,1.656,2.315H83.437a1.751,1.751,0,0,0,1.657-2.315A14.74,14.74,0,0,0,71.14,93.25Zm-23.825,8.8a11.242,11.242,0,0,1,9.545-5.3H71.14a11.242,11.242,0,0,1,9.545,5.3Z" fill="#001c5b"/>
    </g>
  </g>
</svg>
