<?xml version="1.0" encoding="utf-8"?>
<!-- Generator: Adobe Illustrator 24.3.0, SVG Export Plug-In . SVG Version: 6.00 Build 0)  -->
<svg version="1.1" id="Layer_1" xmlns="http://www.w3.org/2000/svg" xmlns:xlink="http://www.w3.org/1999/xlink" x="0px" y="0px"
	 viewBox="0 0 80 80" enable-background="new 0 0 80 80" xml:space="preserve">
<path fill="#667BBC" d="M30.217,12.426c-12.242,0-22.167,9.924-22.167,22.167c0,12.243,9.925,22.167,22.167,22.167
	s22.167-9.924,22.167-22.167C52.384,22.35,42.459,12.426,30.217,12.426z M29.882,48.759c-7.823,0-14.166-6.343-14.166-14.167
	c0-7.824,6.343-14.166,14.166-14.166c7.824,0,14.167,6.343,14.167,14.166C44.049,42.417,37.706,48.759,29.882,48.759z"/>
<path fill="#FFCC43" d="M71.277,56.157c2.274,1.398,2.984,4.375,1.586,6.649l0,0c-1.397,2.273-4.375,2.984-6.648,1.585
	l-13.062-8.031c-2.274-1.398-2.984-4.375-1.586-6.648l0,0c1.398-2.274,4.375-2.985,6.648-1.586L71.277,56.157z"/>
<path fill="#131731" d="M29.549,18.425c-8.931,0-16.167,7.238-16.169,16.167c0.002,8.931,7.238,16.167,16.169,16.169
	c8.928-0.002,16.164-7.238,16.166-16.169C45.713,25.663,38.476,18.427,29.549,18.425z M29.549,47.759
	c-7.273-0.012-13.155-5.896-13.168-13.167c0.013-7.271,5.895-13.153,13.168-13.165c7.269,0.012,13.152,5.893,13.165,13.165
	C42.701,41.863,36.818,47.747,29.549,47.759z M72.762,56.586l-14.039-8.709c-0.922-0.571-1.953-0.847-2.964-0.845
	c-1.396-0.003-2.771,0.523-3.822,1.495l-2.388-1.481c2.216-3.569,3.499-7.777,3.5-12.288c-0.003-12.887-10.449-23.331-23.334-23.333
	c-12.889,0-23.333,10.447-23.333,23.333c0,12.889,10.444,23.333,23.333,23.333c7.297,0,13.809-3.351,18.088-8.597l2.552,1.583
	c-0.152,0.521-0.23,1.054-0.23,1.581c-0.002,1.878,0.945,3.723,2.663,4.788l14.041,8.709C67.744,66.726,68.777,67,69.791,67h0.007
	c1.874,0,3.716-0.947,4.781-2.66c0.569-0.922,0.845-1.952,0.843-2.966C75.426,59.498,74.478,57.651,72.762,56.586z M29.715,55.092
	c-11.23-0.021-20.313-9.103-20.334-20.334c0.021-11.229,9.104-20.313,20.334-20.333c11.228,0.021,20.314,9.105,20.332,20.333
	C50.028,45.989,40.943,55.071,29.715,55.092z M72.025,62.763c-0.494,0.799-1.35,1.236-2.234,1.238
	c-0.477-0.002-0.949-0.127-1.382-0.396l-14.041-8.709c-0.806-0.498-1.242-1.354-1.244-2.238c0-0.477,0.125-0.947,0.394-1.378
	c0.503-0.809,1.356-1.247,2.24-1.249c0.476,0,0.943,0.124,1.383,0.396l14.039,8.709c0.805,0.498,1.24,1.354,1.242,2.238
	C72.423,61.847,72.297,62.323,72.025,62.763z"/>
</svg>
