<?xml version="1.0" encoding="iso-8859-1"?>
<!-- Generator: Adobe Illustrator 19.0.0, SVG Export Plug-In . SVG Version: 6.00 Build 0)  -->
<svg xmlns="http://www.w3.org/2000/svg" xmlns:xlink="http://www.w3.org/1999/xlink" version="1.1" id="Layer_1" x="0px" y="0px" viewBox="0 0 512.001 512.001" style="enable-background:new 0 0 512.001 512.001;" xml:space="preserve">
<path style="fill:#51504E;" d="M488.21,315.796h-22.624c-1.92-8.28-5.179-16.045-9.549-23.053l15.998-15.998  c6.771-6.771,6.771-17.746,0-24.517c-6.77-6.771-17.746-6.771-24.518,0l-15.995,15.996c-7.008-4.366-14.772-7.625-23.053-9.546  v-22.624c0-9.576-7.763-17.337-17.337-17.337c-9.574,0-17.334,7.761-17.334,17.337v22.624c-8.283,1.921-16.048,5.179-23.056,9.548  l-15.997-15.998c-6.771-6.771-17.747-6.771-24.519,0c-6.769,6.77-6.769,17.747,0,24.517l16,15.998  c-4.369,7.007-7.629,14.772-9.548,23.053h-22.627c-9.573,0-17.336,7.763-17.336,17.337c0,9.574,7.763,17.336,17.336,17.336h22.627  c1.919,8.282,5.179,16.046,9.548,23.054l-16,15.996c-6.769,6.772-6.769,17.748,0,24.518c6.771,6.771,17.747,6.771,24.519,0  l15.997-15.997c7.005,4.369,14.772,7.628,23.056,9.547v22.626c0,9.574,7.761,17.335,17.334,17.335  c9.573,0,17.337-7.761,17.337-17.335v-22.626c8.281-1.919,16.045-5.178,23.053-9.547l15.998,15.997  c6.769,6.771,17.746,6.771,24.517,0c6.77-6.77,6.77-17.745,0-24.518l-16-15.996c4.37-7.007,7.629-14.771,9.549-23.054h22.624  c9.574,0,17.337-7.762,17.337-17.336C505.547,323.558,497.784,315.796,488.21,315.796z M391.131,377.005  c-24.232,0-43.874-19.641-43.874-43.872c0-24.23,19.642-43.873,43.874-43.873c24.228,0,43.872,19.643,43.872,43.873  C435.003,357.363,415.359,377.005,391.131,377.005z"/>
<path style="fill:#6B6968;" d="M488.21,315.796h-22.624c-1.92-8.28-5.179-16.045-9.549-23.053l15.998-15.998  c6.771-6.771,6.771-17.746,0-24.517c-6.77-6.771-17.746-6.771-24.518,0l-15.995,15.996c-7.008-4.366-14.772-7.625-23.053-9.546  v-11.06c-18.043,10.867-32.115,27.653-39.531,47.673c6.513-3.828,14.094-6.032,22.194-6.032c24.228,0,43.872,19.643,43.872,43.873  c0,24.231-19.644,43.872-43.872,43.872c-5.543,0-10.839-1.038-15.721-2.914c7.945,13.902,19.358,25.566,33.058,33.817v-0.323  c8.281-1.919,16.045-5.178,23.054-9.547l15.998,15.997c6.769,6.771,17.746,6.771,24.517,0c6.77-6.77,6.77-17.745,0-24.518  l-16-15.996c4.37-7.007,7.629-14.771,9.549-23.054h22.624c9.574,0,17.337-7.762,17.337-17.336S497.784,315.796,488.21,315.796z"/>
<path style="fill:#C6C6C6;" d="M251.711,314.949c-49.4,39.953-123.4,4.586-123.4-58.948c0-41.855,33.931-75.787,75.787-75.787  c39.071,0,71.229,29.571,75.333,67.552c12.674-16.56,28.943-30.225,47.649-39.817c-2.968-7.604-6.597-14.876-10.863-21.718  l27.634-27.635c11.695-11.695,11.695-30.654,0-42.349c-11.698-11.695-30.655-11.695-42.35,0l-27.634,27.636  c-12.106-7.548-25.518-13.176-39.822-16.493V88.306c0-16.539-13.408-29.947-29.946-29.947c-16.542,0-29.946,13.408-29.946,29.947  v39.085c-14.306,3.316-27.72,8.944-39.824,16.495l-27.636-27.638c-11.697-11.695-30.655-11.695-42.35,0  c-11.696,11.695-11.696,30.655,0,42.349l27.638,27.635c-7.55,12.104-13.178,25.518-16.495,39.824H36.4  c-16.538,0-29.946,13.407-29.946,29.946c0,16.541,13.408,29.948,29.946,29.948h39.086c3.317,14.306,8.945,27.718,16.495,39.82  l-27.64,27.635c-11.694,11.698-11.694,30.657,0.002,42.351c11.695,11.698,30.653,11.698,42.35,0l27.636-27.634  c12.103,7.547,25.514,13.175,39.824,16.494v39.085c0,16.539,13.404,29.944,29.946,29.944c16.538,0,29.946-13.405,29.946-29.944  v-39.085c8.121-1.885,15.942-4.538,23.413-7.837C250.97,356.893,249.023,335.721,251.711,314.949z"/>
<path style="fill:#DDDDDD;" d="M301.502,116.247l-27.634,27.636c-12.106-7.548-25.518-13.176-39.822-16.493v-25.373  c-61.669,17.529-106.835,74.269-106.835,141.558c0,67.29,45.164,124.03,106.835,141.559v-0.52  c8.121-1.885,15.942-4.538,23.413-7.837c-6.488-19.883-8.436-41.057-5.748-61.828c-49.4,39.953-123.4,4.586-123.4-58.948  c0-41.855,33.931-75.787,75.787-75.787c39.071,0,71.229,29.571,75.333,67.552c12.674-16.56,28.943-30.225,47.649-39.817  c-2.968-7.604-6.597-14.876-10.863-21.718l27.634-27.635c11.695-11.695,11.695-30.654,0-42.349  C332.154,104.552,313.196,104.552,301.502,116.247z"/>
<path d="M390.545,281.579c-28.243,0-51.221,22.977-51.221,51.22s22.977,51.219,51.221,51.219c7.298,0,14.351-1.505,20.962-4.475  c3.797-1.705,5.494-6.166,3.788-9.962c-1.705-3.797-6.169-5.496-9.962-3.788c-4.658,2.091-9.633,3.152-14.789,3.152  c-19.931,0-36.148-16.215-36.148-36.146c0-19.931,16.216-36.147,36.148-36.147c28.045,0,45.392,30.713,31.036,54.687  c-2.138,3.571-0.978,8.2,2.594,10.338c3.571,2.137,8.2,0.978,10.338-2.594C454.89,325.053,430.23,281.579,390.545,281.579z"/>
<path d="M487.203,308.001h-16.762c-1.516-4.897-3.477-9.632-5.866-14.165l11.851-11.851c4.685-4.684,7.264-10.911,7.264-17.535  c0-6.623-2.578-12.85-7.264-17.534c-9.668-9.668-25.399-9.667-35.069,0.001l-11.851,11.851c-4.533-2.389-9.268-4.349-14.163-5.864  v-16.763c0-13.673-11.124-24.798-24.798-24.798c-13.672,0-24.796,11.124-24.796,24.798v16.762  c-4.897,1.516-9.633,3.478-14.166,5.867l-11.853-11.854c-9.668-9.668-25.399-9.667-35.069,0.001  c-9.668,9.669-9.667,25.4,0.001,35.068l11.853,11.852c-2.39,4.533-4.35,9.267-5.866,14.164h-16.764  c-13.673,0-24.798,11.124-24.798,24.798s11.124,24.798,24.798,24.798h16.764c1.515,4.896,3.477,9.631,5.866,14.164l-11.855,11.853  c-9.665,9.67-9.665,25.4,0.001,35.066c4.684,4.685,10.911,7.264,17.535,7.264s12.851-2.579,17.534-7.264l11.852-11.851  c4.533,2.39,9.269,4.35,14.167,5.865v16.763c0,13.672,11.123,24.797,24.796,24.797c13.673,0,24.798-11.124,24.798-24.797v-16.763  c4.896-1.515,9.631-3.477,14.164-5.866l11.851,11.85c4.684,4.686,10.911,7.265,17.535,7.265s12.852-2.579,17.536-7.264  c9.666-9.667,9.666-25.397-0.001-35.069l-11.853-11.851c2.39-4.533,4.351-9.268,5.866-14.164h16.762  c13.673,0,24.798-11.124,24.798-24.798C512.001,319.122,500.876,308.001,487.203,308.001z M487.203,342.523h-22.527  c-3.506,0-6.551,2.419-7.343,5.835c-1.698,7.33-4.579,14.283-8.56,20.666c-1.856,2.975-1.413,6.838,1.067,9.317l15.929,15.926  c3.791,3.793,3.791,9.963,0.001,13.755c-1.837,1.837-4.28,2.849-6.877,2.849c-2.597,0-5.038-1.012-6.876-2.85l-15.929-15.928  c-2.479-2.478-6.341-2.921-9.316-1.066c-6.384,3.98-13.338,6.86-20.668,8.559c-3.415,0.792-5.834,3.836-5.834,7.343v22.528  c0,5.362-4.363,9.724-9.725,9.724c-5.361,0-9.723-4.362-9.723-9.724v-22.528c0-3.506-2.419-6.551-5.835-7.343  c-7.335-1.699-14.288-4.579-20.668-8.559c-1.231-0.768-2.613-1.141-3.985-1.141c-1.947,0-3.878,0.754-5.332,2.207l-15.93,15.929  c-1.837,1.837-4.28,2.849-6.876,2.849c-2.598,0-5.039-1.012-6.876-2.85c-3.79-3.789-3.79-9.959-0.001-13.752l15.931-15.928  c2.48-2.48,2.922-6.343,1.067-9.317c-3.981-6.384-6.861-13.336-8.56-20.666c-0.792-3.415-3.836-5.835-7.343-5.835h-22.529  c-5.362,0-9.725-4.363-9.725-9.725s4.363-9.725,9.725-9.725h22.529c3.506,0,6.55-2.418,7.342-5.834  c1.7-7.332,4.581-14.285,8.561-20.667c1.856-2.975,1.413-6.838-1.067-9.317l-15.93-15.929c-3.791-3.79-3.791-9.96-0.001-13.752  c3.791-3.791,9.963-3.79,13.754-0.001L345,273.502c2.48,2.48,6.344,2.924,9.316,1.067c6.384-3.98,13.338-6.86,20.67-8.561  c3.416-0.792,5.834-3.835,5.834-7.342v-22.527c0-5.362,4.362-9.725,9.723-9.725c5.362,0,9.725,4.363,9.725,9.725v22.527  c0,3.506,2.418,6.55,5.834,7.342c7.33,1.7,14.284,4.581,20.669,8.56c2.975,1.855,6.837,1.411,9.316-1.068l15.926-15.927  c3.791-3.791,9.962-3.791,13.755,0c1.837,1.837,2.848,4.279,2.848,6.875c0,2.598-1.011,5.039-2.849,6.876l-15.929,15.929  c-2.479,2.48-2.921,6.343-1.066,9.317c3.98,6.383,6.86,13.336,8.561,20.667c0.792,3.415,3.835,5.834,7.342,5.834h22.527  c5.362,0,9.725,4.363,9.725,9.725S492.565,342.523,487.203,342.523z"/>
<path d="M258.103,332.799c0-5.726,0.371-11.493,1.101-17.139c0.396-3.055-1.108-6.043-3.796-7.547  c-2.688-1.501-6.02-1.22-8.417,0.719c-12.205,9.871-26.959,15.089-42.667,15.089c-37.452,0-67.923-30.469-67.923-67.922  c0-50.147,52.789-83.047,97.733-61.046c3.739,1.83,8.253,0.28,10.083-3.455c1.83-3.739,0.282-8.253-3.455-10.083  c-54.941-26.893-119.433,13.314-119.433,74.585c0,45.763,37.232,82.995,82.996,82.995c13.538,0,26.87-3.353,38.746-9.616  c-0.026,1.141-0.039,2.281-0.039,3.42c0,13.273,1.762,26.387,5.244,39.079c-5.208,1.981-10.512,3.601-15.837,4.836  c-3.415,0.792-5.833,3.835-5.833,7.342v38.916c0,12.284-9.994,22.278-22.28,22.278s-22.28-9.993-22.28-22.278v-38.916  c0-3.506-2.418-6.55-5.834-7.342c-13.254-3.075-25.826-8.281-37.367-15.475c-2.976-1.857-6.838-1.412-9.316,1.066l-27.517,27.514  c-4.208,4.209-9.804,6.528-15.755,6.528c-19.77,0-29.751-24.035-15.756-38.036l27.52-27.516c2.481-2.48,2.922-6.344,1.066-9.318  c-7.195-11.533-12.402-24.103-15.476-37.361c-0.792-3.416-3.835-5.834-7.342-5.834H37.353c-12.285,0-22.28-9.995-22.28-22.282  c0-12.285,9.994-22.28,22.28-22.28h38.916c3.506,0,6.55-2.418,7.342-5.834c3.076-13.259,8.282-25.831,15.476-37.366  c1.857-2.975,1.414-6.838-1.066-9.317l-27.518-27.515c-8.707-8.707-8.708-22.799,0.001-31.506  c8.686-8.687,22.822-8.686,31.507-0.001l27.516,27.518c2.48,2.481,6.344,2.922,9.318,1.066  c11.535-7.195,24.105-12.401,37.364-15.474c3.416-0.792,5.835-3.836,5.835-7.343V89.033c0-12.286,9.994-22.281,22.28-22.281  s22.28,9.994,22.28,22.281v38.916c0,3.506,2.418,6.55,5.834,7.342c13.254,3.075,25.826,8.28,37.365,15.474  c2.973,1.856,6.838,1.413,9.316-1.067l27.514-27.515c8.686-8.687,22.822-8.687,31.507,0c8.688,8.687,8.688,22.82,0,31.506  l-27.514,27.516c-2.479,2.479-2.92,6.342-1.066,9.316c2.826,4.531,5.378,9.312,7.622,14.273  c-12.369,7.117-23.746,16.082-33.615,26.459c-3.555-11.441-9.577-21.981-17.805-31.041c-2.797-3.081-7.564-3.311-10.645-0.512  c-3.081,2.798-3.311,7.564-0.512,10.646c9.725,10.708,15.683,23.94,17.231,38.264c0.331,3.065,2.493,5.618,5.462,6.448  c2.966,0.832,6.141-0.23,8.016-2.677c11.949-15.611,27.473-28.584,44.896-37.519c3.441-1.765,4.988-5.845,3.581-9.447  c-2.39-6.12-5.195-12.047-8.37-17.69l23.378-23.378c14.597-14.599,14.6-38.224-0.001-52.825  c-14.563-14.561-38.261-14.564-52.825,0.001l-23.374,23.375c-9.759-5.513-20.118-9.803-30.923-12.806v-33.06  c0-20.597-16.756-37.354-37.353-37.354s-37.353,16.757-37.353,37.354v33.06c-10.807,3.003-21.167,7.294-30.926,12.808  l-23.376-23.378c-23.493-23.489-63.765-6.713-63.765,26.413c0,9.977,3.886,19.358,10.942,26.412l23.377,23.374  c-5.513,9.758-9.804,20.118-12.809,30.926H37.353C16.756,218.648,0,235.404,0,256.001c0,20.598,16.756,37.355,37.353,37.355h33.061  c3.004,10.806,7.295,21.165,12.808,30.922l-23.379,23.376c-23.446,23.454-6.75,63.766,26.414,63.766  c9.977,0,19.358-3.886,26.413-10.942l23.377-23.375c9.759,5.513,20.12,9.804,30.925,12.808v33.06  c0,20.595,16.756,37.351,37.353,37.351s37.353-16.756,37.353-37.351v-33.066c6.373-1.783,12.68-4.047,18.82-6.76  c3.539-1.564,5.32-5.553,4.12-9.233C260.294,360.668,258.103,346.836,258.103,332.799z"/>
<g>
</g>
<g>
</g>
<g>
</g>
<g>
</g>
<g>
</g>
<g>
</g>
<g>
</g>
<g>
</g>
<g>
</g>
<g>
</g>
<g>
</g>
<g>
</g>
<g>
</g>
<g>
</g>
<g>
</g>
</svg>
