<svg xmlns="http://www.w3.org/2000/svg" viewBox="0 0 24 24"><title>Camera Upload</title><g id="Camera_Upload" data-name="Camera Upload"><path d="M21.65,3c-1.45,0-1.86.91-3.73,3.24A4,4,0,0,0,14,3H4A4,4,0,0,0,0,7V17a4,4,0,0,0,4,4H6a1,1,0,0,0,0-2H4a2,2,0,0,1-2-2V7A2,2,0,0,1,4,5H14a2,2,0,0,1,2,2V17a2,2,0,0,1-2,2H11a1,1,0,0,1-1-1V12.41l1.29,1.3a1,1,0,0,0,1.42-1.42c-4.42-4.42-3-4.38-7.42,0A1,1,0,0,0,6,14c.55,0,.69-.27,2-1.59V18a3,3,0,0,0,3,3h3a4,4,0,0,0,3.92-3.24C19.71,20,20.19,21,21.65,21A2.35,2.35,0,0,0,24,18.65V5.35A2.35,2.35,0,0,0,21.65,3ZM22,18.65a.36.36,0,0,1-.62.22L18,14.65V9.35l3.38-4.22a.36.36,0,0,1,.62.22Z"/></g></svg>