<svg xmlns="http://www.w3.org/2000/svg" width="128" height="128" viewBox="0 0 128 128">
  <title>LIVE</title>
  <g>
    <g>
      <rect x="24.196" y="59.381" width="79.602" height="39.461" fill="#fd4b4a"/>
      <g>
        <path d="M34.1,90.6v-16h3.256V87.883h8.1V90.6Z" fill="#e9f1f8"/>
        <path d="M51.863,90.6V74.472h3.256V90.6Z" fill="#e9f1f8"/>
        <path d="M66.527,90.6,60.762,74.472h3.531l4.082,11.937,3.949-11.937h3.455L70,90.6Z" fill="#e9f1f8"/>
        <path d="M81.631,90.6V74.472H93.589V77.2h-8.7v3.576h8.1v2.717h-8.1v4.39H93.9V90.6Z" fill="#e9f1f8"/>
      </g>
      <circle cx="63.997" cy="59.604" r="8.182" fill="#ffd92d"/>
    </g>
    <g>
      <path d="M38.25,61.131h.667a1.75,1.75,0,0,0,0-3.5H38.25a1.75,1.75,0,0,0,0,3.5Z" fill="#001c5b"/>
      <path d="M49.167,97.092H25.949V61.131h5.676a1.75,1.75,0,0,0,0-3.5H24.2a1.751,1.751,0,0,0-1.75,1.75V98.842a1.75,1.75,0,0,0,1.75,1.75H49.167a1.75,1.75,0,1,0,0-3.5Z" fill="#001c5b"/>
      <path d="M103.8,57.631H77.723a1.75,1.75,0,1,0,0,3.5h24.328V97.092H55.818a1.75,1.75,0,0,0,0,3.5H103.8a1.75,1.75,0,0,0,1.75-1.75V59.381A1.751,1.751,0,0,0,103.8,57.631Z" fill="#001c5b"/>
      <polygon points="45.453 87.883 37.356 87.883 37.356 74.604 34.1 74.604 34.1 90.6 45.453 90.6 45.453 87.883" fill="#001c5b"/>
      <rect x="51.866" y="74.472" width="3.256" height="16.128" fill="#001c5b"/>
      <polygon points="70.006 90.6 75.782 74.472 72.327 74.472 68.378 86.409 64.296 74.472 60.765 74.472 66.53 90.6 70.006 90.6" fill="#001c5b"/>
      <polygon points="93.592 77.2 93.592 74.472 81.634 74.472 81.634 90.6 93.9 90.6 93.9 87.883 84.89 87.883 84.89 83.493 92.987 83.493 92.987 80.776 84.89 80.776 84.89 77.2 93.592 77.2" fill="#001c5b"/>
      <path d="M73.933,59.6a9.934,9.934,0,0,0-19.67-1.973H45.417a1.75,1.75,0,0,0,0,3.5H54.2A9.928,9.928,0,0,0,73.933,59.6Zm-5.385,4.548A6.43,6.43,0,1,1,70.433,59.6,6.389,6.389,0,0,1,68.548,64.152Z" fill="#001c5b"/>
      <path d="M78.96,47.118a1.749,1.749,0,0,0,0-2.475,21.157,21.157,0,0,0-29.92,0,1.749,1.749,0,1,0,2.474,2.474,17.659,17.659,0,0,1,24.971,0A1.751,1.751,0,0,0,78.96,47.118Z" fill="#001c5b"/>
      <path d="M78.987,35.056a28.9,28.9,0,0,1,5.346,4.213,1.75,1.75,0,1,0,2.475-2.475,32.375,32.375,0,0,0-6-4.723,1.75,1.75,0,0,0-1.826,2.985Z" fill="#001c5b"/>
      <path d="M73.443,32.433c.32.11.637.228.951.349a1.75,1.75,0,1,0,1.262-3.264q-.53-.206-1.067-.392a1.75,1.75,0,0,0-1.146,3.307Z" fill="#001c5b"/>
      <path d="M42.428,39.782a1.748,1.748,0,0,0,1.238-.512A28.564,28.564,0,0,1,64,30.847a29.113,29.113,0,0,1,3.934.267,1.75,1.75,0,0,0,.475-3.468,32.71,32.71,0,0,0-4.409-.3A32.047,32.047,0,0,0,41.191,36.8a1.75,1.75,0,0,0,1.237,2.987Z" fill="#001c5b"/>
    </g>
  </g>
</svg>
